# xmcd
#
# Track frame offsets: 
#        150
#        14850
#        32673
#        43863
#        57363
#        75833
#        94338
#        109420
#        143786
#        160872
#        179647
#        199202
#        216013
#        241931
#
# Disc length: 3270 seconds
#
# Revision: 0
# Processed by: cddbd v1.5PL3 Copyright (c) Steve Scherf et al.
# Submitted via: ExactAudioCopy v0.95a5
#
DISCID=c70cc40e
DTITLE=Terry Hanck - I Keep On Holdin' ON
DYEAR=1900
DGENRE=
TTITLE0=Hard As You Can
TTITLE1=Cryin' Fool
TTITLE2=Flatfoot Sam
TTITLE3=Is It True
TTITLE4=I Keep On Holdin' On
TTITLE5=She Ain't Coming Back
TTITLE6=I Don't Love You No More
TTITLE7=You Could Have Let Me Go
TTITLE8=Whatcha Gonna Do
TTITLE9=One Horse Town
TTITLE10=Where's My Baby
TTITLE11=Itchy Twitchy
TTITLE12=Travelin' Mood
TTITLE13=One Horse Reprise
EXTD=
EXTT0=
EXTT1=
EXTT2=
EXTT3=
EXTT4=
EXTT5=
EXTT6=
EXTT7=
EXTT8=
EXTT9=
EXTT10=
EXTT11=
EXTT12=
EXTT13=
PLAYORDER=
